<svg width="22" height="20" viewBox="0 0 22 20" fill="none" xmlns="http://www.w3.org/2000/svg">
<path d="M18.114 3.63603C21.6287 7.15075 21.6287 12.8492 18.114 16.364M15.4626 6.28777C17.5129 8.33802 17.5129 11.6621 15.4626 13.7124M5.75 6.25005L10.4697 1.53038C10.9421 1.0579 11.75 1.39253 11.75 2.06071V17.9394C11.75 18.6076 10.9421 18.9422 10.4697 18.4697L5.75 13.75H3.50905C2.62971 13.75 1.8059 13.2436 1.57237 12.3958C1.36224 11.633 1.25 10.8296 1.25 10C1.25 9.17046 1.36224 8.36709 1.57237 7.60429C1.8059 6.75652 2.62971 6.25005 3.50905 6.25005H5.75Z" stroke="white" stroke-width="2" stroke-linecap="round" stroke-linejoin="round"/>
</svg>
